<svg xmlns="http://www.w3.org/2000/svg" width="64" height="32" viewBox="0 0 64 32" fill="none">
  <path d="M30.4385 1.25294C30.8037 0.255656 31.8012 -0.330457 32.7129 0.200209C33.5389 0.696358 33.766 1.77094 33.8779 2.67482C34.2135 6.2843 34.2806 10.0039 34.3516 13.6465C36.2663 13.6882 38.2351 13.7432 40.1104 13.7998C42.1985 13.9331 44.3694 13.8748 46.4229 14.336C48.7668 15.0051 48.3717 17.3881 46.0703 17.7666C42.9824 18.2171 40.3851 18.1803 37.1719 18.2949C36.2229 18.319 35.2851 18.3425 34.3525 18.3633C34.3109 20.2743 34.2567 22.239 34.2002 24.1104C34.0669 26.1985 34.1253 28.3694 33.6641 30.4229C32.9949 32.7668 30.6119 32.3717 30.2334 30.0703C29.7829 26.9824 29.8197 24.3851 29.7051 21.1719C29.6811 20.2278 29.6565 19.2949 29.6357 18.3672C29.4599 18.3617 29.2838 18.3577 29.1074 18.3506C26.9313 18.292 24.8561 18.2624 22.6934 18.1611C20.896 18.0092 18.9837 18.1267 17.2529 17.5615C16.2556 17.1963 15.6695 16.1988 16.2002 15.2871C16.6963 14.4611 17.7709 14.234 18.6748 14.1221C22.2795 13.787 25.9939 13.7184 29.6318 13.6475C29.6374 13.4677 29.6421 13.2877 29.6494 13.1074C29.7081 10.9313 29.7376 8.85616 29.8389 6.69337C29.9908 4.89597 29.8733 2.98367 30.4385 1.25294ZM20.291 4.83693C22.1442 4.74895 24 4.6745 24 6.42872C23.9999 8.01996 22.1933 8.28808 22.1865 8.28908C18.4639 8.8223 12.3347 9.88614 9.15723 11.2139C4.37915 13.2108 3.98535 15.1975 3.98535 16C3.98535 16.8025 4.37915 18.7892 9.15723 20.7861C12.3347 22.1139 18.4639 23.1804 22.1865 23.711C22.1932 23.7119 23.9999 23.98 24 25.5713C24 27.3255 22.1416 27.2511 20.291 27.1631C9.15534 26.6352 0.000245714 22.0469 0 15.9336C0 9.82014 9.15519 5.37016 20.291 4.83693ZM40 6.42872C40 4.6745 41.8558 4.74895 43.709 4.83693C54.8446 5.36482 63.9997 9.81443 64 15.9277V15.9336C63.9998 22.0469 54.8447 26.6352 43.709 27.1631C41.8584 27.2511 40 27.3255 40 25.5713C40.0001 23.9798 41.8074 23.7118 41.8135 23.711C45.5361 23.1804 51.6653 22.1139 54.8428 20.7861C59.6208 18.7892 60.0146 16.8025 60.0146 16C60.0146 15.1975 59.6208 13.2108 54.8428 11.2139C51.6653 9.88614 45.5361 8.8223 41.8135 8.28908C41.8073 8.28816 40.0001 8.0202 40 6.42872Z" fill="#1F1E1B"/>
</svg>