<?xml version="1.0" encoding="UTF-8"?><svg id="Layer_1" xmlns="http://www.w3.org/2000/svg" viewBox="0 0 500 487.67"><defs><style>.cls-1{fill:#25eb2a;}</style></defs><path class="cls-1" d="M296.21,126.19v-16.19h46.76v-15.02h78.43v14.56h-14.47v16.56h-16.46v15.18h-15.29v15.38h-15.1v16.56h-16.46v15.2h-15.28v15.37h-31.57v16.56h-15.28v15.01h-15.02v-46.57h14.65v-62.6h15.1ZM266.2,0v15.28h-16.29v31.39h-15.28v15.37h-46.75v16.57h-46.95v15.18h-62.13v15.38h-46.76v16.74H0v62.51h15.37v15h31.75v-15.1h46.58v-15.47h46.95v-16.38h46.94v-14.82h14.56v62.32h-14.92v47.23h-15.29v31.75h-16.46v16.56h-15.1v15.37h-14.83v47.05h15.2v109.72h15.1v16.01h31.57v-16.47h15.28v-62.41h16.46v-47.23h93.71v-15.37h156.02v-16.39h14.56v-47.21h-14.92v-14.82h-108.89v14.63h-46.5v-15h30.48v-16.56h31.56v-15.37h31.75v-15.19h15.28v-16.56h31.57v-15.2h15.1v-31.94h15.37v-30.56h15.74v-63.78h-16.1v-15.37h-15.29v-15.2h-155.74V15.28h-16.29V0h-30.38Z"/></svg>